inDegrees=no
num_controls=7
num_derivatives=13
num_iterations=176
num_multipliers=7
num_parameters=0
num_slacks=7
num_states=26
objective=0.509757
objective_accelerations=0.040307
objective_balance=0.003449
objective_effort=0.029449
objective_height=0.323728
objective_ligament=0.112825
solver_duration=2429.109247
status=Solve_Succeeded
success=true
DataType=double
version=3
OpenSimVersion=4.5
endheader
time	/jointset/ground_pelvis/pelvis_tilt/value	/jointset/ground_pelvis/pelvis_tx/value	/jointset/ground_pelvis/pelvis_ty/value	/jointset/hip_l/hip_flexion_l/value	/jointset/hip_l/hip_adduction_l/value	/jointset/hip_l/hip_rotation_l/value	/jointset/back/lumbar_extension/value	/jointset/patellofemoral_l/patellar_flexion_l/value	/jointset/knee_l/knee_flexion_l/value	/jointset/knee_l/knee_adduction_l/value	/jointset/knee_l/knee_rotation_l/value	/jointset/ankle_l/ankle_angle_l/value	/jointset/subtalar_l/subtalar_angle_l/value	/jointset/ground_pelvis/pelvis_tilt/speed	/jointset/ground_pelvis/pelvis_tx/speed	/jointset/ground_pelvis/pelvis_ty/speed	/jointset/hip_l/hip_flexion_l/speed	/jointset/hip_l/hip_adduction_l/speed	/jointset/hip_l/hip_rotation_l/speed	/jointset/back/lumbar_extension/speed	/jointset/patellofemoral_l/patellar_flexion_l/speed	/jointset/knee_l/knee_flexion_l/speed	/jointset/knee_l/knee_adduction_l/speed	/jointset/knee_l/knee_rotation_l/speed	/jointset/ankle_l/ankle_angle_l/speed	/jointset/subtalar_l/subtalar_angle_l/speed	/forceset/tau_hip_flexion_l	/forceset/tau_hip_adduction_l	/forceset/tau_hip_rotation_l	/forceset/tau_knee_flexion_l	/forceset/tau_ankle_angle_l	/forceset/tau_subtalar_angle_l	/forceset/tau_lumbar_extension	lambda_cid13_p0	lambda_cid13_p1	lambda_cid13_p2	lambda_cid13_p3	lambda_cid13_p4	lambda_cid13_p5	lambda_cid14_p0	/jointset/ground_pelvis/pelvis_tilt/accel	/jointset/ground_pelvis/pelvis_tx/accel	/jointset/ground_pelvis/pelvis_ty/accel	/jointset/hip_l/hip_flexion_l/accel	/jointset/hip_l/hip_adduction_l/accel	/jointset/hip_l/hip_rotation_l/accel	/jointset/back/lumbar_extension/accel	/jointset/patellofemoral_l/patellar_flexion_l/accel	/jointset/knee_l/knee_flexion_l/accel	/jointset/knee_l/knee_adduction_l/accel	/jointset/knee_l/knee_rotation_l/accel	/jointset/ankle_l/ankle_angle_l/accel	/jointset/subtalar_l/subtalar_angle_l/accel	gamma_cid13_p0	gamma_cid13_p1	gamma_cid13_p2	gamma_cid13_p3	gamma_cid13_p4	gamma_cid13_p5	gamma_cid14_p0
1.5	-0.01037033354014616	-0.02210515328485918	0.8709516736556583	0.6248594431292153	-0.2950090641936065	-0.1944812526329156	-0.7848245272972446	0.6378695173667289	0.6378695173667674	-0.06652047253188738	-0.1710854378974052	0.08045341944510212	0.02884720223075997	0.4327400084234342	0.2300501901838076	0.3490961899160874	-1.866911303464778	0.1893407548914032	-0.6153106036881081	0.8572757857745157	-1.712749376985317	-1.71274937698523	0.0611657951927749	-0.01348449365316648	-0.3226510541870606	0.09689540054835234	-0.2067786401687489	0.05381486516024386	-0.00794205311800103	-0.1776996823931467	0.08996274896149137	0.01909564217278222	0.2810921378519106	-14.13315356742639	-7.279899311430822	2.375434213115026	-7.581733621214926	-668.1781792166262	-52.36452109235478	-19.92255609532949	0.1850640855698405	0.6479429605178664	-0.5486206924683426	-0.4412908369858181	0.5098675929006955	0.1609137888252414	1.727895983796003	-0.1125498856270504	-0.1125498856270507	-0.07828997936274831	-0.02384663838588443	0.4015632490203386	0.6452326089091478	1.897621625228402e-07	7.123631694763743e-07	-8.597078088893735e-07	3.771650802236653e-08	2.0123355416441e-07	2.742031910381688e-07	1.983212101510836e-07
1.51	-0.006034183975528915	-0.01977249871423042	0.8744146404181719	0.6061699998666223	-0.2930914544711142	-0.2006254013709726	-0.7761668733720657	0.6207381585916315	0.6207381585915908	-0.06591514504670194	-0.1712222027498068	0.07724707542219098	0.02984698159155734	0.4344238248800427	0.2364525925635069	0.3434388731272778	-1.870740902574033	0.1941348179179626	-0.6134304015700744	0.8741211076294911	-1.713305146839819	-1.713305146839734	0.05983920232245717	-0.01386169111014254	-0.3185708438388623	0.103023362515007	-0.1983710144931768	0.05211631054362324	-0.007926698093814962	-0.1764965616876212	0.09214904388978362	0.01805574351166415	0.2735076599399959	-13.26575093295251	-7.023573787855547	2.384172109878746	-7.661570025671884	-664.4944118088328	-52.52463729722716	-20.4201723550594	0.1501480483929634	0.6321768590453686	-0.5829885061005861	-0.3183052981601307	0.4572312426458462	0.2150773988921215	1.642766541773	0.005454696017705795	0.005454696017456369	-0.1688362613038502	-0.04381400505469514	0.4183121657681176	0.5909969414925514	1.888213456806835e-07	7.189089024328072e-07	-8.57541650867285e-07	3.819741457130554e-08	2.072994051043905e-07	2.862419965107466e-07	1.976070863244852e-07
1.52	-0.00168317472178304	-0.01737666252333535	0.8778192937459949	0.5874493584429035	-0.2911272930012895	-0.2067480472927684	-0.7673447829772505	0.6036077511642506	0.6036077511641617	-0.06532488195434348	-0.1713625711178977	0.07408294595037239	0.03090692436221257	0.4357119462440937	0.2426865142370689	0.3374335029779678	-1.873150935693898	0.1986511043489907	-0.61101004042804	0.8901630797014599	-1.712559107439138	-1.712559107439054	0.05815291663465941	-0.01420519679516871	-0.3142081439687215	0.1089280825196197	-0.189963388817626	0.05041775592698153	-0.007911343069653087	-0.1752934409820968	0.0943353388180735	0.01701584485051962	0.265923182028071	-12.40073937711348	-6.767687983215297	2.393961405808643	-7.777321353020116	-660.8677970778664	-52.72935315320427	-20.88973376480061	0.1059250670583787	0.6142468192904114	-0.6182313645683968	-0.1573776391076765	0.454312273794488	0.2689455936255111	1.567226027194724	0.1478119654097442	0.147811965409742	-0.1502285428587107	-0.0171082839958726	0.4580611534088693	0.600584216500798	1.872539662524419e-07	7.213356373430864e-07	-8.521865888509487e-07	3.812353313054322e-08	2.134117172013717e-07	2.965562041655209e-07	1.960284669635554e-07
1.53	0.002678714934013038	-0.01491940696350556	0.8811622096993648	0.5687117241918799	-0.2891194053051044	-0.2128438693990751	-0.7583664561370674	0.5864912718908575	0.5864912718907879	-0.06475326389800354	-0.1715061635394269	0.07096377423783939	0.032024736029207	0.4365969757399676	0.248728252195544	0.3310967008852382	-1.874133815162414	0.2028734028138985	-0.6080705395692494	0.9053514560605689	-1.710519060163575	-1.710519060163529	0.05610982572524732	-0.01450597891196512	-0.3095865295120062	0.1145888015467352	-0.1813888550679824	0.04853438751186466	-0.00789680619102129	-0.1743275207581391	0.09662350710046676	0.01585213870291501	0.258195090386405	-11.52283817266001	-6.456239898162957	2.39026616948527	-7.802848831417794	-657.3955673235669	-52.88577313312076	-21.32825121178201	0.06945897722341951	0.5936928750991175	-0.6493080788057782	-0.03240693989824464	0.3982403541902302	0.3192171645536183	1.472018599289043	0.2647157311790969	0.2647157311733643	-0.2403998391273663	-0.03563907630791831	0.4701880307899806	0.5419822542141147	1.85020864076485e-07	7.193859368293275e-07	-8.434433163407241e-07	3.746018945072323e-08	2.195733942776662e-07	3.050380266388789e-07	1.935313210973986e-07
1.54	0.007047388302066734	-0.01240282290589697	0.8844401769423714	0.5499715283783553	-0.2870708842799561	-0.2189077435303194	-0.7492407705014879	0.5694017160147169	0.5694017160146939	-0.06420388684562202	-0.1716525789622606	0.06789201395767212	0.0331977881881533	0.437068688690681	0.2545522137928296	0.3244437609053086	-1.873663248197937	0.2067777701328348	-0.6046204454085354	0.9196348387804854	-1.70717442798603	-1.707174427986021	0.05370471585006132	-0.01476979706021881	-0.3047258574958061	0.1199761809097393	-0.1728143213183588	0.04665101909673174	-0.007882269312422439	-0.1733616005341826	0.09891167538285897	0.01468843255529115	0.2504669987447288	-10.6476261409835	-6.144646638225619	2.386920578356811	-7.861627336188294	-653.9812725351089	-53.08463253203746	-21.73284826501682	0.02326175802636311	0.5706915470524793	-0.6814589420083995	0.1333116474907924	0.3907260446002713	0.3710642540102302	1.38622729935626	0.4087289458063084	0.4087289458063095	-0.2226323360134339	-0.009715490287299009	0.5058726653057741	0.5459162836785445	1.823329254253234e-07	7.135268592321724e-07	-8.316913939295143e-07	3.620729402281572e-08	2.257353705648997e-07	3.11617792397796e-07	1.90272567755107e-07
